<mxfile host="app.diagrams.net" agent="Mozilla/5.0 (X11; Linux x86_64) AppleWebKit/537.36 (KHTML, like Gecko) Chrome/133.0.0.0 Safari/537.36" version="26.0.16" pages="2">
  <diagram name="第 1 页" id="pYEo9n55LFIaC50_qVGi">
    <mxGraphModel dx="2074" dy="1035" grid="1" gridSize="10" guides="1" tooltips="1" connect="1" arrows="1" fold="1" page="1" pageScale="1" pageWidth="827" pageHeight="1169" math="0" shadow="0">
      <root>
        <mxCell id="0" />
        <mxCell id="1" parent="0" />
        <mxCell id="fZmtpVuCEXEls6BPULkl-1" value="文字" style="whiteSpace=wrap;html=1;" parent="1" vertex="1">
          <mxGeometry x="150" y="270" width="120" height="60" as="geometry" />
        </mxCell>
        <mxCell id="fZmtpVuCEXEls6BPULkl-2" value="表情包图片" style="whiteSpace=wrap;html=1;" parent="1" vertex="1">
          <mxGeometry x="150" y="380" width="120" height="60" as="geometry" />
        </mxCell>
        <mxCell id="fZmtpVuCEXEls6BPULkl-3" value="图片语音" style="whiteSpace=wrap;html=1;" parent="1" vertex="1">
          <mxGeometry x="150" y="490" width="120" height="60" as="geometry" />
        </mxCell>
        <mxCell id="fZmtpVuCEXEls6BPULkl-4" value="服务器" style="whiteSpace=wrap;html=1;" parent="1" vertex="1">
          <mxGeometry x="240" y="670" width="120" height="60" as="geometry" />
        </mxCell>
        <mxCell id="fZmtpVuCEXEls6BPULkl-5" value="" style="edgeStyle=none;orthogonalLoop=1;jettySize=auto;html=1;rounded=0;entryX=0.425;entryY=0.033;entryDx=0;entryDy=0;entryPerimeter=0;exitX=0.25;exitY=1;exitDx=0;exitDy=0;" parent="1" source="fZmtpVuCEXEls6BPULkl-3" target="fZmtpVuCEXEls6BPULkl-4" edge="1">
          <mxGeometry width="100" relative="1" as="geometry">
            <mxPoint x="80" y="820" as="sourcePoint" />
            <mxPoint x="180" y="820" as="targetPoint" />
            <Array as="points" />
          </mxGeometry>
        </mxCell>
        <mxCell id="fZmtpVuCEXEls6BPULkl-6" value="上传" style="edgeLabel;html=1;align=center;verticalAlign=middle;resizable=0;points=[];" parent="fZmtpVuCEXEls6BPULkl-5" vertex="1" connectable="0">
          <mxGeometry x="-0.1582" y="-1" relative="1" as="geometry">
            <mxPoint as="offset" />
          </mxGeometry>
        </mxCell>
        <mxCell id="fZmtpVuCEXEls6BPULkl-7" value="" style="edgeStyle=none;orthogonalLoop=1;jettySize=auto;html=1;rounded=0;entryX=0.75;entryY=1;entryDx=0;entryDy=0;exitX=0.75;exitY=0;exitDx=0;exitDy=0;" parent="1" source="fZmtpVuCEXEls6BPULkl-4" target="fZmtpVuCEXEls6BPULkl-3" edge="1">
          <mxGeometry width="100" relative="1" as="geometry">
            <mxPoint x="520" y="620" as="sourcePoint" />
            <mxPoint x="620" y="620" as="targetPoint" />
            <Array as="points" />
          </mxGeometry>
        </mxCell>
        <mxCell id="fZmtpVuCEXEls6BPULkl-8" value="url" style="edgeLabel;html=1;align=center;verticalAlign=middle;resizable=0;points=[];" parent="fZmtpVuCEXEls6BPULkl-7" vertex="1" connectable="0">
          <mxGeometry x="0.112" y="-4" relative="1" as="geometry">
            <mxPoint as="offset" />
          </mxGeometry>
        </mxCell>
        <mxCell id="fZmtpVuCEXEls6BPULkl-9" value="" style="edgeStyle=none;orthogonalLoop=1;jettySize=auto;html=1;rounded=0;entryX=0.276;entryY=0.079;entryDx=0;entryDy=0;exitX=1;exitY=0.5;exitDx=0;exitDy=0;entryPerimeter=0;" parent="1" source="fZmtpVuCEXEls6BPULkl-1" target="fZmtpVuCEXEls6BPULkl-11" edge="1">
          <mxGeometry width="100" relative="1" as="geometry">
            <mxPoint x="340" y="680" as="sourcePoint" />
            <mxPoint x="250" y="560" as="targetPoint" />
            <Array as="points" />
          </mxGeometry>
        </mxCell>
        <mxCell id="fZmtpVuCEXEls6BPULkl-10" value="content" style="edgeLabel;html=1;align=center;verticalAlign=middle;resizable=0;points=[];" parent="fZmtpVuCEXEls6BPULkl-9" vertex="1" connectable="0">
          <mxGeometry x="0.112" y="-4" relative="1" as="geometry">
            <mxPoint as="offset" />
          </mxGeometry>
        </mxCell>
        <mxCell id="fZmtpVuCEXEls6BPULkl-18" style="edgeStyle=orthogonalEdgeStyle;rounded=0;orthogonalLoop=1;jettySize=auto;html=1;" parent="1" source="fZmtpVuCEXEls6BPULkl-11" target="fZmtpVuCEXEls6BPULkl-12" edge="1">
          <mxGeometry relative="1" as="geometry" />
        </mxCell>
        <mxCell id="fZmtpVuCEXEls6BPULkl-19" value="websocket" style="edgeLabel;html=1;align=center;verticalAlign=middle;resizable=0;points=[];" parent="fZmtpVuCEXEls6BPULkl-18" vertex="1" connectable="0">
          <mxGeometry x="-0.1478" y="-2" relative="1" as="geometry">
            <mxPoint as="offset" />
          </mxGeometry>
        </mxCell>
        <mxCell id="fZmtpVuCEXEls6BPULkl-11" value="消息" style="ellipse;whiteSpace=wrap;html=1;" parent="1" vertex="1">
          <mxGeometry x="390" y="370" width="130" height="80" as="geometry" />
        </mxCell>
        <mxCell id="fZmtpVuCEXEls6BPULkl-12" value="发送" style="whiteSpace=wrap;html=1;" parent="1" vertex="1">
          <mxGeometry x="650" y="380" width="120" height="60" as="geometry" />
        </mxCell>
        <mxCell id="fZmtpVuCEXEls6BPULkl-14" value="" style="edgeStyle=none;orthogonalLoop=1;jettySize=auto;html=1;rounded=0;entryX=0.462;entryY=1;entryDx=0;entryDy=0;exitX=1;exitY=0.5;exitDx=0;exitDy=0;entryPerimeter=0;" parent="1" source="fZmtpVuCEXEls6BPULkl-3" target="fZmtpVuCEXEls6BPULkl-11" edge="1">
          <mxGeometry width="100" relative="1" as="geometry">
            <mxPoint x="280" y="310" as="sourcePoint" />
            <mxPoint x="436" y="386" as="targetPoint" />
            <Array as="points" />
          </mxGeometry>
        </mxCell>
        <mxCell id="fZmtpVuCEXEls6BPULkl-15" value="url" style="edgeLabel;html=1;align=center;verticalAlign=middle;resizable=0;points=[];" parent="fZmtpVuCEXEls6BPULkl-14" vertex="1" connectable="0">
          <mxGeometry x="0.112" y="-4" relative="1" as="geometry">
            <mxPoint as="offset" />
          </mxGeometry>
        </mxCell>
        <mxCell id="fZmtpVuCEXEls6BPULkl-16" value="" style="edgeStyle=none;orthogonalLoop=1;jettySize=auto;html=1;rounded=0;entryX=0.005;entryY=0.571;entryDx=0;entryDy=0;exitX=1;exitY=0.5;exitDx=0;exitDy=0;entryPerimeter=0;" parent="1" source="fZmtpVuCEXEls6BPULkl-2" target="fZmtpVuCEXEls6BPULkl-11" edge="1">
          <mxGeometry width="100" relative="1" as="geometry">
            <mxPoint x="290" y="320" as="sourcePoint" />
            <mxPoint x="446" y="396" as="targetPoint" />
            <Array as="points" />
          </mxGeometry>
        </mxCell>
        <mxCell id="fZmtpVuCEXEls6BPULkl-17" value="url" style="edgeLabel;html=1;align=center;verticalAlign=middle;resizable=0;points=[];" parent="fZmtpVuCEXEls6BPULkl-16" vertex="1" connectable="0">
          <mxGeometry x="0.112" y="-4" relative="1" as="geometry">
            <mxPoint as="offset" />
          </mxGeometry>
        </mxCell>
      </root>
    </mxGraphModel>
  </diagram>
  <diagram id="ZSgmOFGc_uO5rkELbSCk" name="第 2 页">
    <mxGraphModel dx="1430" dy="714" grid="1" gridSize="10" guides="1" tooltips="1" connect="1" arrows="1" fold="1" page="1" pageScale="1" pageWidth="827" pageHeight="1169" math="0" shadow="0">
      <root>
        <mxCell id="0" />
        <mxCell id="1" parent="0" />
        <mxCell id="QyI9nr20uWhEZl75Y5Eg-3" value="" style="edgeStyle=orthogonalEdgeStyle;rounded=0;orthogonalLoop=1;jettySize=auto;html=1;exitX=1;exitY=0.25;exitDx=0;exitDy=0;entryX=0;entryY=0.25;entryDx=0;entryDy=0;" edge="1" parent="1" source="nLKaJDyGN6cf_lmdupXQ-1" target="nLKaJDyGN6cf_lmdupXQ-4">
          <mxGeometry relative="1" as="geometry" />
        </mxCell>
        <mxCell id="nLKaJDyGN6cf_lmdupXQ-1" value="user A" style="whiteSpace=wrap;html=1;" vertex="1" parent="1">
          <mxGeometry x="30" y="160" width="120" height="60" as="geometry" />
        </mxCell>
        <mxCell id="nLKaJDyGN6cf_lmdupXQ-2" value="user B" style="whiteSpace=wrap;html=1;" vertex="1" parent="1">
          <mxGeometry x="640" y="160" width="120" height="60" as="geometry" />
        </mxCell>
        <mxCell id="QyI9nr20uWhEZl75Y5Eg-9" value="" style="edgeStyle=orthogonalEdgeStyle;rounded=0;orthogonalLoop=1;jettySize=auto;html=1;" edge="1" parent="1" source="nLKaJDyGN6cf_lmdupXQ-4" target="QyI9nr20uWhEZl75Y5Eg-8">
          <mxGeometry relative="1" as="geometry" />
        </mxCell>
        <mxCell id="QyI9nr20uWhEZl75Y5Eg-13" value="" style="edgeStyle=orthogonalEdgeStyle;rounded=0;orthogonalLoop=1;jettySize=auto;html=1;" edge="1" parent="1" source="nLKaJDyGN6cf_lmdupXQ-4" target="QyI9nr20uWhEZl75Y5Eg-12">
          <mxGeometry relative="1" as="geometry" />
        </mxCell>
        <mxCell id="nLKaJDyGN6cf_lmdupXQ-4" value="server" style="whiteSpace=wrap;html=1;" vertex="1" parent="1">
          <mxGeometry x="330" y="160" width="120" height="60" as="geometry" />
        </mxCell>
        <mxCell id="QyI9nr20uWhEZl75Y5Eg-4" value="1msg" style="text;html=1;align=center;verticalAlign=middle;resizable=0;points=[];autosize=1;strokeColor=none;fillColor=none;" vertex="1" parent="1">
          <mxGeometry x="200" y="150" width="50" height="30" as="geometry" />
        </mxCell>
        <mxCell id="QyI9nr20uWhEZl75Y5Eg-5" value="" style="edgeStyle=none;orthogonalLoop=1;jettySize=auto;html=1;rounded=0;entryX=1;entryY=0.5;entryDx=0;entryDy=0;" edge="1" parent="1" source="nLKaJDyGN6cf_lmdupXQ-4" target="nLKaJDyGN6cf_lmdupXQ-1">
          <mxGeometry width="100" relative="1" as="geometry">
            <mxPoint x="140" y="270" as="sourcePoint" />
            <mxPoint x="240" y="270" as="targetPoint" />
            <Array as="points" />
          </mxGeometry>
        </mxCell>
        <mxCell id="QyI9nr20uWhEZl75Y5Eg-7" value="2store" style="text;html=1;align=center;verticalAlign=middle;resizable=0;points=[];autosize=1;strokeColor=none;fillColor=none;" vertex="1" parent="1">
          <mxGeometry x="330" y="250" width="60" height="30" as="geometry" />
        </mxCell>
        <mxCell id="QyI9nr20uWhEZl75Y5Eg-8" value="database" style="whiteSpace=wrap;html=1;" vertex="1" parent="1">
          <mxGeometry x="330" y="300" width="120" height="60" as="geometry" />
        </mxCell>
        <mxCell id="QyI9nr20uWhEZl75Y5Eg-10" value="3ack" style="text;html=1;align=center;verticalAlign=middle;resizable=0;points=[];autosize=1;strokeColor=none;fillColor=none;" vertex="1" parent="1">
          <mxGeometry x="195" y="190" width="50" height="30" as="geometry" />
        </mxCell>
        <mxCell id="QyI9nr20uWhEZl75Y5Eg-11" value="history queue" style="whiteSpace=wrap;html=1;" vertex="1" parent="1">
          <mxGeometry x="640" y="280" width="120" height="60" as="geometry" />
        </mxCell>
        <mxCell id="QyI9nr20uWhEZl75Y5Eg-14" value="" style="edgeStyle=orthogonalEdgeStyle;rounded=0;orthogonalLoop=1;jettySize=auto;html=1;" edge="1" parent="1" source="QyI9nr20uWhEZl75Y5Eg-12" target="nLKaJDyGN6cf_lmdupXQ-2">
          <mxGeometry relative="1" as="geometry" />
        </mxCell>
        <mxCell id="QyI9nr20uWhEZl75Y5Eg-15" style="edgeStyle=orthogonalEdgeStyle;rounded=0;orthogonalLoop=1;jettySize=auto;html=1;entryX=0;entryY=0.5;entryDx=0;entryDy=0;" edge="1" parent="1" source="QyI9nr20uWhEZl75Y5Eg-12" target="QyI9nr20uWhEZl75Y5Eg-11">
          <mxGeometry relative="1" as="geometry">
            <Array as="points">
              <mxPoint x="540" y="310" />
            </Array>
          </mxGeometry>
        </mxCell>
        <mxCell id="QyI9nr20uWhEZl75Y5Eg-12" value="is online" style="rhombus;whiteSpace=wrap;html=1;" vertex="1" parent="1">
          <mxGeometry x="500" y="150" width="80" height="80" as="geometry" />
        </mxCell>
      </root>
    </mxGraphModel>
  </diagram>
</mxfile>
